<svg width="107" height="93" viewBox="0 0 107 93" fill="none" xmlns="http://www.w3.org/2000/svg">
<path d="M40.125 9.96429C40.125 4.46317 44.6182 0 50.1562 0H56.8438C62.3818 0 66.875 4.46317 66.875 9.96429V83.0357C66.875 88.5368 62.3818 93 56.8438 93H50.1562C44.6182 93 40.125 88.5368 40.125 83.0357V9.96429ZM0 49.8214C0 44.3203 4.49316 39.8571 10.0312 39.8571H16.7188C22.2568 39.8571 26.75 44.3203 26.75 49.8214V83.0357C26.75 88.5368 22.2568 93 16.7188 93H10.0312C4.49316 93 0 88.5368 0 83.0357V49.8214ZM90.2812 13.2857H96.9688C102.507 13.2857 107 17.7489 107 23.25V83.0357C107 88.5368 102.507 93 96.9688 93H90.2812C84.7432 93 80.25 88.5368 80.25 83.0357V23.25C80.25 17.7489 84.7432 13.2857 90.2812 13.2857Z" fill="#F60710"/>
</svg>
