<svg width="90" height="93" viewBox="0 0 90 93" fill="none" xmlns="http://www.w3.org/2000/svg">
<path d="M20.3226 10.1719C20.3226 4.55918 24.877 0 30.4839 0H34.8387C38.0504 0 40.6452 2.59746 40.6452 5.8125V87.1875C40.6452 90.4025 38.0504 93 34.8387 93H29.0323C23.625 93 19.0706 89.2945 17.7823 84.2812C17.6552 84.2812 17.5464 84.2812 17.4194 84.2812C9.39919 84.2812 2.90323 77.7785 2.90323 69.75C2.90323 66.4805 3.99194 63.4652 5.80645 61.0312C2.28629 58.3793 0 54.1652 0 49.4062C0 43.7936 3.19355 38.9074 7.83871 36.4916C6.5504 34.3119 5.80645 31.7689 5.80645 29.0625C5.80645 21.034 12.3024 14.5312 20.3226 14.5312V10.1719ZM69.6774 10.1719V14.5312C77.6976 14.5312 84.1936 21.034 84.1936 29.0625C84.1936 31.7871 83.4496 34.3301 82.1613 36.4916C86.8246 38.9074 90 43.7754 90 49.4062C90 54.1652 87.7137 58.3793 84.1936 61.0312C86.0081 63.4652 87.0968 66.4805 87.0968 69.75C87.0968 77.7785 80.6008 84.2812 72.5806 84.2812C72.4536 84.2812 72.3448 84.2812 72.2177 84.2812C70.9294 89.2945 66.375 93 60.9677 93H55.1613C51.9496 93 49.3548 90.4025 49.3548 87.1875V5.8125C49.3548 2.59746 51.9496 0 55.1613 0H59.5161C65.123 0 69.6774 4.55918 69.6774 10.1719Z" fill="#F60710"/>
</svg>
