<svg width="160" height="161" viewBox="0 0 160 161" fill="none" xmlns="http://www.w3.org/2000/svg">
<path d="M0.113525 80.6404V140.527C0.113525 151.573 9.06783 160.527 20.1135 160.527H79.9999H139.886C150.932 160.527 159.886 151.573 159.886 140.527V80.6404V20.754C159.886 9.70831 150.932 0.754018 139.886 0.754018H79.9999H20.1135C9.06781 0.754018 0.113525 9.70832 0.113525 20.754V80.6404ZM122.429 52.9465C125.5 53.5501 127.186 54.4732 129.228 56.6745C130.861 58.432 131.465 59.6214 132.104 62.3198C132.583 64.3436 132.086 67.3793 130.932 69.2788C130.843 69.4208 130.701 69.7049 130.612 69.9002C130.524 70.1132 130.328 70.3795 130.169 70.5037C130.009 70.628 129.885 70.841 129.885 70.9476C129.885 71.2138 128.411 72.6163 127.399 73.2909C126.441 73.9477 125.375 74.4448 123.937 74.9419C122.446 75.4744 119.624 75.4567 118.008 74.9419C116.606 74.4803 115.327 73.9122 115.008 73.5927C114.884 73.4684 114.706 73.3619 114.653 73.3619C114.458 73.3619 112.647 71.5866 111.937 70.699C111.209 69.7759 110.534 68.5155 110.534 68.0716C110.534 67.3438 110.375 67.326 103.114 67.326H97.0596C96.4552 67.326 95.8615 67.4852 95.3381 67.7876V67.7876C94.415 68.3379 93.3321 69.5273 93.2078 70.1664C93.1546 70.415 92.9948 70.9476 92.8528 71.3559C92.693 71.7819 92.5155 72.7051 92.4267 73.3974C92.1249 75.9893 91.042 78.3326 89.4265 79.9126L89.3107 80.0251C89.0388 80.2892 89.0513 80.7295 89.3378 80.9777V80.9777C90.758 82.2559 92.1782 85.2206 92.4267 87.3864C92.7285 90.1913 93.6516 92.1796 95.0008 92.9785C96.4388 93.8128 98.8176 94.2389 99.3147 93.7418C99.439 93.6175 99.5277 93.3513 99.5277 93.1382C99.5277 92.9074 99.5987 92.6944 99.6875 92.6412C99.7763 92.5879 99.9005 92.3394 99.9538 92.0908C100.362 90.4753 103.984 86.9781 105.67 86.5698C105.954 86.4988 106.345 86.339 106.54 86.2147C106.735 86.0727 107.197 85.9662 107.587 85.9662C107.96 85.9662 108.582 85.8774 108.972 85.7532C109.789 85.5046 112.452 85.7887 113.641 86.2502C114.653 86.6408 115.86 87.2444 116.268 87.5639C117.049 88.1675 119.588 90.7949 119.588 91.0257C119.588 91.1499 119.712 91.3452 119.854 91.4695C119.996 91.5938 120.121 91.8068 120.121 91.9666C120.121 92.1086 120.227 92.3749 120.369 92.5169C120.511 92.6767 120.795 93.511 121.008 94.3631C121.328 95.6236 121.399 96.2449 121.328 97.5231C121.275 98.393 121.15 99.2096 121.044 99.3161C120.937 99.4404 120.813 99.8487 120.742 100.221C120.422 101.872 118.239 104.855 116.41 106.133C115.789 106.577 114.458 107.269 114.227 107.269C114.138 107.269 113.801 107.376 113.499 107.518C112.061 108.175 107.854 108.175 106.593 107.518C106.345 107.376 105.972 107.269 105.777 107.269C105.581 107.269 105.333 107.145 105.209 107.003C105.084 106.861 104.889 106.737 104.765 106.737C104.25 106.737 101.96 104.713 100.859 103.275C100.238 102.458 99.5277 101.056 99.5277 100.612C99.5277 99.973 99.1904 99.8487 97.3264 99.8309C96.1903 99.8132 95.3914 99.7067 95.0718 99.5291C94.8056 99.4049 94.4505 99.2806 94.3085 99.2806C93.6872 99.2806 91.2551 97.8426 90.2964 96.9018C89.32 95.9431 87.8111 93.9371 87.8111 93.5998C87.8111 93.4933 87.6513 93.1205 87.456 92.7654C87.2607 92.3926 87.101 91.9666 87.101 91.8245C87.101 91.6825 86.9767 91.2387 86.8347 90.8481C86.6927 90.4576 86.5861 89.7297 86.5684 89.2504C86.5684 87.4397 85.4677 85.2206 84.2073 84.4217C83.1599 83.7649 82.3965 83.6229 79.6094 83.5519C77.6389 83.5163 77.1595 83.5519 77.1595 83.7471C77.1595 83.8714 76.8222 84.6348 76.4139 85.4336C75.7216 86.7473 74.3546 88.3628 72.7747 89.6942C72.2421 90.1558 69.81 91.292 69.3839 91.292C69.1531 91.292 68.5851 91.4162 68.1057 91.576C66.3837 92.1441 63.3836 91.6293 60.916 90.3511C59.9573 89.854 57.9513 88.0787 57.33 87.1556C57.0637 86.7473 56.7796 86.3745 56.7264 86.3212C56.5488 86.1615 55.892 84.6525 55.7855 84.1732C55.6435 83.5519 55.3772 83.4986 52.519 83.4986C50.4065 83.4986 50.1224 83.5341 49.8029 83.8536C49.6254 84.0312 49.4656 84.3507 49.4656 84.5282C49.4656 84.9366 48.791 86.1615 48.4537 86.3745C48.3294 86.4455 48.2229 86.6408 48.2229 86.7828C48.2229 87.0669 45.9506 89.5167 45.6843 89.5167C45.5778 89.5167 45.3647 89.6232 45.2227 89.7652C44.7434 90.1913 42.4888 91.292 42.0983 91.292C41.903 91.292 41.3527 91.4162 40.8734 91.5582C39.7194 91.9133 38.2992 91.8955 36.7725 91.5227C35.4588 91.2032 33.7546 90.5286 33.5771 90.2268C33.5238 90.1203 33.3463 90.0493 33.2043 90.0493C33.0445 90.0493 32.6717 89.8185 32.3699 89.5345C32.0503 89.2504 31.5533 88.7889 31.2515 88.5048C29.849 87.2266 28.4288 84.8833 28.1448 83.3921C28.0738 83.0015 27.914 82.1494 27.7897 81.4748C27.5945 80.4274 27.5945 80.1434 27.8607 79.1492C28.0205 78.5279 28.1625 77.8 28.1625 77.5692C28.1625 77.1432 28.6774 76.0425 29.423 74.8709C29.6005 74.5691 29.849 74.143 29.9733 73.9122C30.2218 73.4507 32.2279 71.4624 32.7604 71.1606C32.9557 71.0541 33.4883 70.7523 33.9499 70.4682C34.3937 70.2019 34.9263 69.9889 35.1215 69.9889C35.2991 69.9889 35.6541 69.8646 35.8849 69.7049C36.2222 69.4918 36.8435 69.4208 38.7608 69.4031C40.8911 69.4031 41.3704 69.4386 42.4178 69.8114C43.0747 70.0244 43.6605 70.2907 43.7138 70.3617C43.767 70.4505 43.9268 70.5215 44.0866 70.5215C44.9387 70.5215 48.933 74.5691 48.933 75.4389C48.933 75.5455 49.0573 75.723 49.1993 75.8473C49.3413 75.9715 49.4656 76.2556 49.4656 76.4863C49.4656 77.3385 49.8206 77.445 52.661 77.445C54.8268 77.445 55.3417 77.3917 55.5725 77.1609C55.7322 77.0189 55.8565 76.7881 55.8565 76.6639C55.8565 76.2911 56.5311 74.8531 56.8329 74.6046C56.9749 74.4803 57.0992 74.285 57.0992 74.1785C57.0992 73.8945 59.5313 71.5689 60.3834 71.0363C62.4072 69.7936 63.5433 69.4386 65.7092 69.3676C68.4963 69.2966 69.6857 69.5984 72.3486 71.0541C73.6623 71.7819 76.2719 74.7999 76.556 75.936C76.6092 76.1845 76.7335 76.3798 76.8045 76.3798C76.8755 76.3798 76.982 76.6106 77.053 76.9124V76.9124C77.1042 77.2197 77.3701 77.445 77.6817 77.445H79.7869C82.3788 77.445 82.4498 77.4272 83.5149 76.8947C84.1895 76.5751 84.8464 76.0603 85.2192 75.6165C85.8583 74.7999 86.5684 72.7583 86.5684 71.6754C86.5684 70.9476 87.172 68.7285 87.5625 68.0006C87.7045 67.7521 87.8111 67.4503 87.8111 67.3438C87.8111 66.5982 91.2018 63.0654 92.4267 62.5506C92.6753 62.4441 92.9948 62.2843 93.1368 62.1956C94.8056 61.2547 96.1548 61.1126 103.593 61.1126C110.499 61.1126 110.534 61.1126 110.534 60.1718C110.534 59.941 110.818 59.3551 111.156 58.8226C111.493 58.3077 111.777 57.8107 111.777 57.7219C111.777 57.4379 114.458 54.8638 115.026 54.6152C115.345 54.4732 115.718 54.2957 115.86 54.2069C116.499 53.8519 117.44 53.4791 118.434 53.2128C119.02 53.0352 119.588 52.8755 119.677 52.8577C120.032 52.7334 121.647 52.7867 122.429 52.9465Z" fill="#FF3F3F"/>
<path d="M120.121 59.1599C119.872 59.2309 119.411 59.3019 119.109 59.3196C118.647 59.3374 118.31 59.5504 117.458 60.4025C116.872 60.9884 116.393 61.6097 116.393 61.7872C116.393 61.9648 116.269 62.2666 116.127 62.4618C115.771 62.9234 115.771 65.3555 116.127 65.8348C116.269 66.0123 116.393 66.3141 116.393 66.4917C116.393 66.9887 118.026 68.4977 118.807 68.7462C119.18 68.8705 119.571 69.0303 119.677 69.119C119.89 69.3321 121.985 69.3321 122.393 69.119C122.553 69.0303 122.89 68.8705 123.139 68.764C124.523 68.1249 125.003 67.6633 125.571 66.4739C126.228 65.0715 126.228 63.1364 125.535 61.805C124.523 59.799 121.985 58.574 120.121 59.1599Z" fill="#FF3F3F"/>
<path d="M37.4649 75.5808C37.2874 75.7228 37.0034 75.8471 36.8436 75.8471C36.311 75.8471 34.9618 77.0543 34.589 77.8354C34.0387 79.0425 34.0032 79.2378 34.0032 80.6758C34.0209 82.6818 34.4647 83.4984 36.453 85.0962C37.2164 85.6998 40.5894 85.6642 41.3705 85.0607C41.6013 84.8654 41.8675 84.7234 41.9386 84.7234C42.2404 84.7234 43.6073 83.2144 43.6073 82.8593C43.6073 82.6641 43.7316 82.3445 43.8736 82.167C44.2996 81.5989 44.2286 79.6284 43.7138 78.4922C43.2878 77.5158 41.7255 75.8471 41.2462 75.8471C41.1042 75.8471 40.7491 75.7228 40.4829 75.5808C39.8083 75.2258 37.9265 75.2258 37.4649 75.5808Z" fill="#FF3F3F"/>
<path d="M64.9104 75.5808C64.6619 75.7228 64.3246 75.8293 64.147 75.8471C63.6145 75.8471 62.1055 77.4093 61.6262 78.4567C61.2889 79.2201 61.1824 79.7349 61.1824 80.7468C61.1824 81.4569 61.2711 82.096 61.3599 82.1493C61.4664 82.2203 61.6439 82.5221 61.786 82.8238C62.1233 83.6582 62.8689 84.4571 63.792 85.0074C64.5199 85.4335 64.8039 85.4867 66.2241 85.4867C68.1236 85.5045 69.1355 85.1139 70.1829 83.96C71.106 82.9304 71.3368 82.2025 71.3191 80.445C71.3191 79.1491 71.2303 78.7585 70.8575 78.0484C70.2894 76.9833 69.5261 76.2909 68.3011 75.7406C67.2005 75.2435 65.6205 75.1725 64.9104 75.5808Z" fill="#FF3F3F"/>
<path d="M107.871 92.2505C106.735 92.8541 105.386 94.2388 105.386 94.8246C105.386 95.0731 105.262 95.4459 105.12 95.6235C104.747 96.1028 104.783 97.4165 105.191 98.5704C105.581 99.7065 106.806 101.18 107.481 101.358C107.747 101.411 108.067 101.571 108.191 101.713C108.475 101.997 111.688 102.05 111.866 101.766C111.937 101.659 112.239 101.482 112.54 101.34C113.446 100.967 114.795 99.529 114.795 98.9609C114.795 98.7834 114.919 98.2686 115.061 97.8248C115.328 97.0792 115.31 96.9194 115.008 95.73C114.6 94.1322 113.694 92.9606 112.381 92.286C111.12 91.6469 109.043 91.6291 107.871 92.2505Z" fill="#FF3F3F"/>
</svg>
