<svg width="94" height="93" viewBox="0 0 94 93" fill="none" xmlns="http://www.w3.org/2000/svg">
<path d="M41.125 0C47.6059 0 52.875 3.90527 52.875 8.71875C52.875 10.6078 52.0672 12.3516 50.6719 13.7865C49.4602 15.0398 48.4688 16.5656 48.4688 18.3094C48.4688 21.034 50.7086 23.25 53.4625 23.25H61.6875C66.5527 23.25 70.5 27.1553 70.5 31.9688V40.1062C70.5 42.8309 72.7398 45.0469 75.4938 45.0469C77.2379 45.0469 78.7984 44.066 80.0652 42.8672C81.5156 41.5049 83.2781 40.6875 85.1875 40.6875C90.0527 40.6875 94 45.9006 94 52.3125C94 58.7244 90.0527 63.9375 85.1875 63.9375C83.2781 63.9375 81.4973 63.1383 80.0652 61.7578C78.7984 60.559 77.2563 59.5781 75.4938 59.5781C72.7398 59.5781 70.5 61.7941 70.5 64.5188V84.2812C70.5 89.0947 66.5527 93 61.6875 93H51.2594C48.9094 93 47 91.1109 47 88.7859C47 87.1148 48.0648 85.6436 49.4234 84.6445C51.5531 83.0643 52.875 80.8846 52.875 78.4688C52.875 73.6553 47.6059 69.75 41.125 69.75C34.6441 69.75 29.375 73.6553 29.375 78.4688C29.375 80.8846 30.6969 83.0643 32.8266 84.6445C34.1852 85.6436 35.25 87.0967 35.25 88.7859C35.25 91.1109 33.3406 93 30.9906 93H8.8125C3.94727 93 0 89.0947 0 84.2812V62.3391C0 60.0141 1.90937 58.125 4.25937 58.125C5.94844 58.125 7.43555 59.1785 8.44531 60.5227C10.0426 62.6297 12.2457 63.9375 14.6875 63.9375C19.5527 63.9375 23.5 58.7244 23.5 52.3125C23.5 45.9006 19.5527 40.6875 14.6875 40.6875C12.2457 40.6875 10.0426 41.9953 8.44531 44.1023C7.43555 45.4465 5.9668 46.5 4.25937 46.5C1.90937 46.5 0 44.6109 0 42.2859V31.9688C0 27.1553 3.94727 23.25 8.8125 23.25H28.7875C31.5414 23.25 33.7812 21.034 33.7812 18.3094C33.7812 16.5838 32.7898 15.0398 31.5781 13.7865C30.2012 12.3516 29.375 10.6078 29.375 8.71875C29.375 3.90527 34.6441 0 41.125 0Z" fill="#F60710"/>
</svg>
