<svg width="83" height="110" viewBox="0 0 83 110" fill="none" xmlns="http://www.w3.org/2000/svg">
<path d="M62.7677 1.23679C64.9723 2.97565 65.7874 6.12987 64.787 8.8797L50.2627 48.5298H77.0697C79.5707 48.5298 81.7938 50.2282 82.646 52.7961C83.4982 55.3639 82.7757 58.2351 80.8675 59.974L27.513 108.5C25.4195 110.401 22.4369 110.502 20.2323 108.763C18.0277 107.024 17.2126 103.87 18.213 101.12L32.7373 61.4702H5.9303C3.42931 61.4702 1.2062 59.7718 0.354011 57.2039C-0.498179 54.6361 0.22433 51.7649 2.1325 50.026L55.487 1.49964C57.5805 -0.400975 60.5631 -0.502072 62.7677 1.23679Z" fill="#F60710"/>
</svg>
