<svg width="158" height="143" viewBox="0 0 158 143" fill="none" xmlns="http://www.w3.org/2000/svg">
<path d="M129.054 46.3409C127.388 45.7663 125.721 45.2237 124.055 44.713C124.332 43.5321 124.579 42.3511 124.826 41.1702C128.622 22.1471 126.122 6.85837 117.698 1.81533C109.582 -3.00428 96.343 2.00684 82.95 14.0718C81.623 15.2528 80.327 16.4976 79.0926 17.7424C78.2594 16.9125 77.3953 16.0826 76.5312 15.2847C62.4902 2.38985 48.4184 -3.03619 39.9938 2.03876C31.9086 6.89028 29.5016 21.2853 32.8961 39.287C33.2355 41.0744 33.6059 42.8299 34.0379 44.6173C32.0629 45.1918 30.1187 45.8302 28.298 46.5004C11.8191 52.4053 0 61.7253 0 71.3645C0 81.3229 12.5906 91.3132 29.7176 97.3776C31.1063 97.8564 32.4949 98.3352 33.9145 98.7501C33.4516 100.665 33.0504 102.548 32.6801 104.495C29.4398 122.21 31.9703 136.254 40.0555 141.073C48.3875 146.052 62.3977 140.946 76.0375 128.593C77.1176 127.604 78.1977 126.583 79.2777 125.497C80.6355 126.87 82.0551 128.178 83.4746 129.455C96.6824 141.201 109.736 145.957 117.79 141.137C126.122 136.158 128.838 121.061 125.32 102.676C125.042 101.272 124.734 99.8353 124.394 98.3671C125.382 98.0798 126.338 97.7606 127.295 97.4415C145.101 91.3451 158 81.4825 158 71.3645C158 61.6934 145.841 52.3095 129.054 46.3409ZM87.3012 19.2425C98.7809 8.90111 109.489 4.84754 114.365 7.75207C119.58 10.8481 121.586 23.3599 118.315 39.7977C118.099 40.8829 117.883 41.9362 117.605 42.9895C110.754 41.3936 103.811 40.2445 96.8367 39.6062C92.825 33.6694 88.443 27.988 83.6906 22.6577C84.8941 21.4768 86.0668 20.3597 87.3012 19.2425ZM51.5969 87.9299C53.1707 90.7068 54.7754 93.4836 56.4727 96.1967C51.6586 95.6541 46.8754 94.8561 42.1539 93.8028C43.5117 89.2066 45.209 84.4509 47.184 79.5993C48.6035 82.4081 50.0539 85.185 51.5969 87.9299ZM42.2465 49.5327C46.6902 48.5113 51.4117 47.6814 56.3184 47.0431C54.6828 49.6922 53.0781 52.4053 51.566 55.1502C50.0539 57.8632 48.5727 60.6401 47.184 63.4489C45.2398 58.6931 43.6043 54.0331 42.2465 49.5327ZM50.702 71.5241C52.7387 67.1194 54.9605 62.8105 57.3059 58.5654C59.6512 54.3203 62.1816 50.2029 64.8355 46.1494C69.4645 45.7983 74.1859 45.6067 79 45.6067C83.8141 45.6067 88.5664 45.7983 93.1645 46.1494C95.7875 50.171 98.2871 54.2884 100.663 58.5016C103.039 62.7148 105.261 67.0237 107.36 71.3964C105.292 75.8011 103.07 80.142 100.694 84.419C98.3488 88.664 95.8492 92.7815 93.2262 96.867C88.6281 97.2181 83.8449 97.3776 79 97.3776C74.1551 97.3776 69.4645 97.2181 64.9281 96.9308C62.2434 92.8772 59.7129 88.7279 57.3367 84.4828C54.9605 80.2377 52.7695 75.9288 50.702 71.5241ZM106.434 87.8661C108.008 85.0573 109.489 82.2166 110.939 79.344C112.914 83.9721 114.643 88.664 116.155 93.4836C111.371 94.6008 106.527 95.4626 101.651 96.0371C103.317 93.356 104.891 90.611 106.434 87.8661ZM110.878 63.4489C109.427 60.6401 107.946 57.8313 106.403 55.0864C104.891 52.3734 103.317 49.6922 101.682 47.0431C106.65 47.6814 111.402 48.5432 115.846 49.5965C114.427 54.3203 112.76 58.9165 110.878 63.4489ZM79.0617 27.5412C82.302 31.1798 85.357 35.01 88.1961 38.9678C82.0859 38.6806 75.9449 38.6806 69.8348 38.9678C72.859 34.8504 75.9758 31.0202 79.0617 27.5412ZM43.2648 7.97549C48.4492 4.84754 59.9598 9.31605 72.0875 20.4235C72.859 21.1257 73.6305 21.8917 74.4328 22.6577C69.6496 27.988 65.2367 33.6694 61.1941 39.6062C54.2199 40.2445 47.3074 41.3617 40.4566 42.9256C40.0555 41.2978 39.716 39.6381 39.3766 37.9784C36.4758 22.5301 38.3891 10.88 43.2648 7.97549ZM35.7043 92.1112C34.4082 91.7282 33.143 91.3132 31.8777 90.8664C25.3047 88.7279 17.8367 85.3446 12.4363 80.908C9.31953 78.6737 7.22109 75.2266 6.63477 71.3645C6.63477 65.5235 16.3863 58.0547 30.4582 52.9798C32.2172 52.3414 34.007 51.7669 35.7969 51.2243C37.8953 58.1505 40.4258 64.949 43.3574 71.5241C40.3949 78.195 37.8336 85.0892 35.7043 92.1112ZM71.6863 123.391C66.5945 128.21 60.7004 132.041 54.2816 134.658C50.8562 136.349 46.9063 136.509 43.3883 135.073C38.4816 132.136 36.4449 120.869 39.2223 105.708C39.5617 103.921 39.932 102.133 40.3641 100.378C47.2766 101.91 54.2508 102.963 61.3176 103.506C65.391 109.475 69.8656 115.188 74.6488 120.55C73.6613 121.54 72.6738 122.497 71.6863 123.391ZM79.2469 115.635C76.0992 112.124 72.9516 108.23 69.8965 104.048C72.859 104.176 75.9141 104.24 79 104.24C82.1785 104.24 85.2953 104.176 88.3812 104.017C85.5422 108.07 82.4871 111.932 79.2469 115.635ZM119.58 125.21C119.302 129.104 117.451 132.743 114.488 135.2C109.582 138.137 99.1203 134.307 87.8258 124.284C86.5297 123.135 85.2336 121.891 83.9066 120.614C88.6281 115.22 92.9793 109.506 96.9293 103.506C103.996 102.899 111.032 101.782 117.975 100.154C118.284 101.463 118.562 102.772 118.809 104.048C120.321 110.943 120.568 118.124 119.58 125.21ZM125.196 90.8983C124.332 91.1856 123.468 91.4728 122.573 91.7282C120.413 84.7701 117.759 77.9715 114.704 71.3645C117.667 64.8533 120.166 58.1505 122.265 51.2881C123.87 51.7669 125.413 52.2776 126.894 52.7883C141.274 57.8951 151.365 65.4916 151.365 71.3007C151.365 77.5566 140.595 85.6318 125.196 90.8983ZM79 86.1106C86.8074 86.1106 93.1336 79.5674 93.1336 71.4922C93.1336 63.417 86.8074 56.8738 79 56.8738C71.1926 56.8738 64.8664 63.417 64.8664 71.4922C64.8664 79.5674 71.1926 86.1106 79 86.1106Z" fill="#61DBFB"/>
</svg>
